<mxfile host="app.diagrams.net" modified="2023-04-23T11:57:11.905Z" agent="Mozilla/5.0 (Macintosh; Intel Mac OS X 10_15_7) AppleWebKit/537.36 (KHTML, like Gecko) Chrome/112.0.0.0 Safari/537.36" etag="iz7VzUyggREPn9LjVFEe" version="21.2.1" type="github">
  <diagram id="6a731a19-8d31-9384-78a2-239565b7b9f0" name="Page-1">
    <mxGraphModel dx="1235" dy="660" grid="1" gridSize="10" guides="1" tooltips="1" connect="1" arrows="1" fold="1" page="1" pageScale="1" pageWidth="1169" pageHeight="827" background="none" math="0" shadow="0">
      <root>
        <mxCell id="0" />
        <mxCell id="1" parent="0" />
        <mxCell id="1746" value="" style="edgeStyle=none;rounded=0;jumpStyle=none;html=1;shadow=0;labelBackgroundColor=none;startArrow=none;startFill=0;endArrow=classic;endFill=1;jettySize=auto;orthogonalLoop=1;strokeColor=#2F5B7C;strokeWidth=3;fontFamily=Helvetica;fontSize=16;fontColor=#23445D;spacing=5;" parent="1" source="1749" target="1771" edge="1">
          <mxGeometry relative="1" as="geometry" />
        </mxCell>
        <mxCell id="1747" value="" style="edgeStyle=none;rounded=0;jumpStyle=none;html=1;shadow=0;labelBackgroundColor=none;startArrow=none;startFill=0;endArrow=classic;endFill=1;jettySize=auto;orthogonalLoop=1;strokeColor=#2F5B7C;strokeWidth=3;fontFamily=Helvetica;fontSize=16;fontColor=#23445D;spacing=5;" parent="1" source="1749" target="1760" edge="1">
          <mxGeometry relative="1" as="geometry" />
        </mxCell>
        <mxCell id="1749" value="Technology Architect" style="rounded=1;whiteSpace=wrap;html=1;shadow=0;labelBackgroundColor=none;strokeColor=none;strokeWidth=3;fillColor=#2F5B7C;fontFamily=Helvetica;fontSize=16;fontColor=#FFFFFF;align=center;fontStyle=1;spacing=5;arcSize=7;perimeterSpacing=2;" parent="1" vertex="1">
          <mxGeometry x="495" y="380.5" width="150" height="70" as="geometry" />
        </mxCell>
        <mxCell id="1760" value="&lt;a href=&quot;https://miro.com/app/board/uXjVMQWyBRc=/?share_link_id=873966646279&quot;&gt;Miro&lt;/a&gt;" style="rounded=1;whiteSpace=wrap;html=1;shadow=0;labelBackgroundColor=none;strokeColor=none;strokeWidth=3;fillColor=#1699d3;fontFamily=Helvetica;fontSize=14;fontColor=#FFFFFF;align=center;spacing=5;fontStyle=1;arcSize=7;perimeterSpacing=2;" parent="1" vertex="1">
          <mxGeometry x="495" y="570.5" width="150" height="60" as="geometry" />
        </mxCell>
        <mxCell id="XryI4TzNOYUp-OScd5cp-1791" value="" style="edgeStyle=orthogonalEdgeStyle;rounded=0;orthogonalLoop=1;jettySize=auto;html=1;" edge="1" parent="1" source="1771" target="XryI4TzNOYUp-OScd5cp-1790">
          <mxGeometry relative="1" as="geometry" />
        </mxCell>
        <mxCell id="XryI4TzNOYUp-OScd5cp-1797" value="" style="edgeStyle=orthogonalEdgeStyle;rounded=0;orthogonalLoop=1;jettySize=auto;html=1;" edge="1" parent="1" source="1771" target="XryI4TzNOYUp-OScd5cp-1796">
          <mxGeometry relative="1" as="geometry">
            <Array as="points">
              <mxPoint x="867" y="230" />
            </Array>
          </mxGeometry>
        </mxCell>
        <mxCell id="1771" value="Discerning Coupling" style="rounded=1;whiteSpace=wrap;html=1;shadow=0;labelBackgroundColor=none;strokeColor=none;strokeWidth=3;fillColor=#12aab5;fontFamily=Helvetica;fontSize=14;fontColor=#FFFFFF;align=center;spacing=5;fontStyle=1;arcSize=7;perimeterSpacing=2;" parent="1" vertex="1">
          <mxGeometry x="795" y="385.5" width="145" height="60" as="geometry" />
        </mxCell>
        <mxCell id="XryI4TzNOYUp-OScd5cp-1795" value="" style="edgeStyle=orthogonalEdgeStyle;rounded=0;orthogonalLoop=1;jettySize=auto;html=1;exitX=0.5;exitY=1;exitDx=0;exitDy=0;" edge="1" parent="1" source="1771" target="XryI4TzNOYUp-OScd5cp-1794">
          <mxGeometry relative="1" as="geometry">
            <Array as="points">
              <mxPoint x="867" y="590" />
            </Array>
          </mxGeometry>
        </mxCell>
        <mxCell id="XryI4TzNOYUp-OScd5cp-1806" value="" style="edgeStyle=orthogonalEdgeStyle;rounded=0;orthogonalLoop=1;jettySize=auto;html=1;" edge="1" parent="1" source="XryI4TzNOYUp-OScd5cp-1790" target="XryI4TzNOYUp-OScd5cp-1805">
          <mxGeometry relative="1" as="geometry" />
        </mxCell>
        <mxCell id="XryI4TzNOYUp-OScd5cp-1807" value="" style="edgeStyle=orthogonalEdgeStyle;rounded=0;orthogonalLoop=1;jettySize=auto;html=1;" edge="1" parent="1" source="XryI4TzNOYUp-OScd5cp-1790" target="XryI4TzNOYUp-OScd5cp-1805">
          <mxGeometry relative="1" as="geometry" />
        </mxCell>
        <mxCell id="XryI4TzNOYUp-OScd5cp-1808" value="" style="edgeStyle=orthogonalEdgeStyle;rounded=0;orthogonalLoop=1;jettySize=auto;html=1;" edge="1" parent="1" source="XryI4TzNOYUp-OScd5cp-1790" target="XryI4TzNOYUp-OScd5cp-1805">
          <mxGeometry relative="1" as="geometry" />
        </mxCell>
        <mxCell id="XryI4TzNOYUp-OScd5cp-1810" style="edgeStyle=orthogonalEdgeStyle;rounded=0;orthogonalLoop=1;jettySize=auto;html=1;entryX=0.5;entryY=0;entryDx=0;entryDy=0;" edge="1" parent="1" source="XryI4TzNOYUp-OScd5cp-1790" target="XryI4TzNOYUp-OScd5cp-1809">
          <mxGeometry relative="1" as="geometry" />
        </mxCell>
        <mxCell id="XryI4TzNOYUp-OScd5cp-1820" value="" style="edgeStyle=orthogonalEdgeStyle;rounded=0;orthogonalLoop=1;jettySize=auto;html=1;" edge="1" parent="1" source="XryI4TzNOYUp-OScd5cp-1809" target="XryI4TzNOYUp-OScd5cp-1819">
          <mxGeometry relative="1" as="geometry" />
        </mxCell>
        <mxCell id="XryI4TzNOYUp-OScd5cp-1821" value="" style="edgeStyle=orthogonalEdgeStyle;rounded=0;orthogonalLoop=1;jettySize=auto;html=1;" edge="1" parent="1" source="XryI4TzNOYUp-OScd5cp-1809" target="XryI4TzNOYUp-OScd5cp-1819">
          <mxGeometry relative="1" as="geometry" />
        </mxCell>
        <mxCell id="XryI4TzNOYUp-OScd5cp-1823" value="" style="edgeStyle=orthogonalEdgeStyle;rounded=0;orthogonalLoop=1;jettySize=auto;html=1;" edge="1" parent="1" source="XryI4TzNOYUp-OScd5cp-1809" target="XryI4TzNOYUp-OScd5cp-1822">
          <mxGeometry relative="1" as="geometry" />
        </mxCell>
        <mxCell id="XryI4TzNOYUp-OScd5cp-1825" value="" style="edgeStyle=orthogonalEdgeStyle;rounded=0;orthogonalLoop=1;jettySize=auto;html=1;" edge="1" parent="1" source="XryI4TzNOYUp-OScd5cp-1809" target="XryI4TzNOYUp-OScd5cp-1824">
          <mxGeometry relative="1" as="geometry" />
        </mxCell>
        <mxCell id="XryI4TzNOYUp-OScd5cp-1809" value="Dynamic Coupling" style="whiteSpace=wrap;html=1;fontSize=14;fillColor=#12aab5;strokeColor=none;fontColor=#FFFFFF;rounded=1;shadow=0;labelBackgroundColor=none;strokeWidth=3;spacing=5;fontStyle=1;arcSize=7;" vertex="1" parent="1">
          <mxGeometry x="1140.91" y="560" width="120" height="60" as="geometry" />
        </mxCell>
        <mxCell id="XryI4TzNOYUp-OScd5cp-1815" value="" style="group;fillColor=#E1D5E7;" vertex="1" connectable="0" parent="1">
          <mxGeometry x="1156" y="385.5" width="297.5" height="60" as="geometry" />
        </mxCell>
        <mxCell id="XryI4TzNOYUp-OScd5cp-1790" value="Coupling" style="whiteSpace=wrap;html=1;fontSize=14;fillColor=#12aab5;strokeColor=none;fontColor=#FFFFFF;rounded=1;shadow=0;labelBackgroundColor=none;strokeWidth=3;spacing=5;fontStyle=1;arcSize=7;" vertex="1" parent="XryI4TzNOYUp-OScd5cp-1815">
          <mxGeometry width="89.81132075471697" height="60" as="geometry" />
        </mxCell>
        <mxCell id="XryI4TzNOYUp-OScd5cp-1814" value="Two parts of a software system are coupled if a change in one might cause a change in the other" style="text;html=1;strokeColor=none;fillColor=none;align=left;verticalAlign=middle;whiteSpace=wrap;rounded=0;fontSize=10;" vertex="1" parent="XryI4TzNOYUp-OScd5cp-1815">
          <mxGeometry x="95.42452830188678" y="13.5" width="114.13522012578615" height="36.5" as="geometry" />
        </mxCell>
        <mxCell id="XryI4TzNOYUp-OScd5cp-1817" value="" style="group;fillColor=#E1D5E7;" vertex="1" connectable="0" parent="1">
          <mxGeometry x="900" y="560" width="122.5" height="100.5" as="geometry" />
        </mxCell>
        <mxCell id="XryI4TzNOYUp-OScd5cp-1794" value="Transactionality" style="whiteSpace=wrap;html=1;fontSize=14;fillColor=#12aab5;strokeColor=none;fontColor=#FFFFFF;rounded=1;shadow=0;labelBackgroundColor=none;strokeWidth=3;spacing=5;fontStyle=1;arcSize=7;" vertex="1" parent="XryI4TzNOYUp-OScd5cp-1817">
          <mxGeometry width="120" height="60" as="geometry" />
        </mxCell>
        <mxCell id="XryI4TzNOYUp-OScd5cp-1816" value="First class architectural concern" style="text;html=1;strokeColor=none;fillColor=none;align=left;verticalAlign=middle;whiteSpace=wrap;rounded=0;" vertex="1" parent="XryI4TzNOYUp-OScd5cp-1817">
          <mxGeometry y="70.5" width="122.5" height="30" as="geometry" />
        </mxCell>
        <mxCell id="XryI4TzNOYUp-OScd5cp-1830" value="" style="group;fillColor=#E1D5E7;" vertex="1" connectable="0" parent="1">
          <mxGeometry x="1270" y="700" width="110" height="90" as="geometry" />
        </mxCell>
        <mxCell id="XryI4TzNOYUp-OScd5cp-1822" value="Consistency" style="whiteSpace=wrap;html=1;fontSize=14;fillColor=#12aab5;strokeColor=none;fontColor=#FFFFFF;rounded=1;shadow=0;labelBackgroundColor=none;strokeWidth=3;spacing=5;fontStyle=1;arcSize=7;" vertex="1" parent="XryI4TzNOYUp-OScd5cp-1830">
          <mxGeometry width="110" height="60" as="geometry" />
        </mxCell>
        <mxCell id="XryI4TzNOYUp-OScd5cp-1829" value="Atomicity or&lt;br style=&quot;font-size: 10px;&quot;&gt;Eventual consistency" style="text;html=1;strokeColor=none;fillColor=none;align=left;verticalAlign=middle;whiteSpace=wrap;rounded=0;fontSize=10;" vertex="1" parent="XryI4TzNOYUp-OScd5cp-1830">
          <mxGeometry y="60" width="110" height="30" as="geometry" />
        </mxCell>
        <mxCell id="XryI4TzNOYUp-OScd5cp-1836" value="User Interface" style="whiteSpace=wrap;html=1;fontSize=14;fillColor=#12aab5;strokeColor=none;fontColor=#FFFFFF;rounded=1;shadow=0;labelBackgroundColor=none;strokeWidth=3;spacing=5;fontStyle=1;arcSize=7;" vertex="1" parent="1">
          <mxGeometry x="1040" y="61.34" width="100" height="59.33" as="geometry" />
        </mxCell>
        <mxCell id="XryI4TzNOYUp-OScd5cp-1837" value="" style="edgeStyle=orthogonalEdgeStyle;rounded=0;orthogonalLoop=1;jettySize=auto;html=1;" edge="1" parent="1" source="XryI4TzNOYUp-OScd5cp-1805" target="XryI4TzNOYUp-OScd5cp-1836">
          <mxGeometry relative="1" as="geometry" />
        </mxCell>
        <mxCell id="XryI4TzNOYUp-OScd5cp-1838" value="Database" style="whiteSpace=wrap;html=1;fontSize=14;fillColor=#12aab5;strokeColor=none;fontColor=#FFFFFF;rounded=1;shadow=0;labelBackgroundColor=none;strokeWidth=3;spacing=5;fontStyle=1;arcSize=7;" vertex="1" parent="1">
          <mxGeometry x="1260" y="61.34" width="100" height="59.33" as="geometry" />
        </mxCell>
        <mxCell id="XryI4TzNOYUp-OScd5cp-1839" value="" style="edgeStyle=orthogonalEdgeStyle;rounded=0;orthogonalLoop=1;jettySize=auto;html=1;" edge="1" parent="1" source="XryI4TzNOYUp-OScd5cp-1805" target="XryI4TzNOYUp-OScd5cp-1838">
          <mxGeometry relative="1" as="geometry" />
        </mxCell>
        <mxCell id="XryI4TzNOYUp-OScd5cp-1840" value="" style="edgeStyle=orthogonalEdgeStyle;rounded=0;orthogonalLoop=1;jettySize=auto;html=1;" edge="1" parent="1" source="XryI4TzNOYUp-OScd5cp-1805" target="XryI4TzNOYUp-OScd5cp-1838">
          <mxGeometry relative="1" as="geometry" />
        </mxCell>
        <mxCell id="XryI4TzNOYUp-OScd5cp-1841" value="Orchestrator" style="whiteSpace=wrap;html=1;fontSize=14;fillColor=#12aab5;strokeColor=none;fontColor=#FFFFFF;rounded=1;shadow=0;labelBackgroundColor=none;strokeWidth=3;spacing=5;fontStyle=1;arcSize=7;" vertex="1" parent="1">
          <mxGeometry x="1150" y="60.67" width="100" height="59.33" as="geometry" />
        </mxCell>
        <mxCell id="XryI4TzNOYUp-OScd5cp-1842" value="" style="edgeStyle=orthogonalEdgeStyle;rounded=0;orthogonalLoop=1;jettySize=auto;html=1;" edge="1" parent="1" source="XryI4TzNOYUp-OScd5cp-1805" target="XryI4TzNOYUp-OScd5cp-1841">
          <mxGeometry relative="1" as="geometry" />
        </mxCell>
        <mxCell id="XryI4TzNOYUp-OScd5cp-1843" value="" style="group;labelBackgroundColor=default;fillColor=#E1D5E7;" vertex="1" connectable="0" parent="1">
          <mxGeometry x="1140" y="200.5" width="290" height="59.666666666666686" as="geometry" />
        </mxCell>
        <mxCell id="XryI4TzNOYUp-OScd5cp-1805" value="Static Coupling" style="whiteSpace=wrap;html=1;fontSize=14;fillColor=#12aab5;strokeColor=none;fontColor=#FFFFFF;rounded=1;shadow=0;labelBackgroundColor=none;strokeWidth=3;spacing=5;fontStyle=1;arcSize=7;" vertex="1" parent="XryI4TzNOYUp-OScd5cp-1843">
          <mxGeometry width="120" height="59.66666666666667" as="geometry" />
        </mxCell>
        <mxCell id="XryI4TzNOYUp-OScd5cp-1831" value="&lt;font style=&quot;font-size: 10px;&quot;&gt;Any coupling point in an architecture can create static coupling from a quantum standpoint&lt;/font&gt;" style="text;html=1;strokeColor=none;fillColor=none;align=left;verticalAlign=middle;whiteSpace=wrap;rounded=0;fontSize=8;" vertex="1" parent="XryI4TzNOYUp-OScd5cp-1843">
          <mxGeometry x="120" width="170" height="50.33" as="geometry" />
        </mxCell>
        <mxCell id="XryI4TzNOYUp-OScd5cp-1844" value="" style="group;fillColor=#E1D5E7;" vertex="1" connectable="0" parent="1">
          <mxGeometry x="900" y="140" width="180" height="120.5" as="geometry" />
        </mxCell>
        <mxCell id="XryI4TzNOYUp-OScd5cp-1796" value="Architecture Quantum" style="whiteSpace=wrap;html=1;fontSize=14;fillColor=#12aab5;strokeColor=none;fontColor=#FFFFFF;rounded=1;shadow=0;labelBackgroundColor=none;strokeWidth=3;spacing=5;fontStyle=1;arcSize=7;" vertex="1" parent="XryI4TzNOYUp-OScd5cp-1844">
          <mxGeometry y="55.07013574660633" width="145" height="65.42986425339366" as="geometry" />
        </mxCell>
        <mxCell id="XryI4TzNOYUp-OScd5cp-1811" value="&lt;font style=&quot;font-size: 9px;&quot;&gt;Independently deployable artifact with &lt;b style=&quot;font-size: 9px;&quot;&gt;high functional cohesion.&lt;/b&gt;&lt;br style=&quot;font-size: 9px;&quot;&gt;Cohesion refers to degree to which the elements inside a module belong together.&lt;/font&gt;" style="text;html=1;strokeColor=none;fillColor=none;align=left;verticalAlign=middle;whiteSpace=wrap;rounded=0;fontSize=9;" vertex="1" parent="XryI4TzNOYUp-OScd5cp-1844">
          <mxGeometry width="180" height="43.61990950226244" as="geometry" />
        </mxCell>
        <mxCell id="XryI4TzNOYUp-OScd5cp-1845" value="" style="group;fillColor=#E1D5E7;" vertex="1" connectable="0" parent="1">
          <mxGeometry x="1030" y="700" width="100" height="90" as="geometry" />
        </mxCell>
        <mxCell id="XryI4TzNOYUp-OScd5cp-1819" value="Communication" style="whiteSpace=wrap;html=1;fontSize=14;fillColor=#12aab5;strokeColor=none;fontColor=#FFFFFF;rounded=1;shadow=0;labelBackgroundColor=none;strokeWidth=3;spacing=5;fontStyle=1;arcSize=7;" vertex="1" parent="XryI4TzNOYUp-OScd5cp-1845">
          <mxGeometry width="100" height="60" as="geometry" />
        </mxCell>
        <mxCell id="XryI4TzNOYUp-OScd5cp-1826" value="Synchronous or Asynchronous" style="text;html=1;strokeColor=none;fillColor=none;align=left;verticalAlign=middle;whiteSpace=wrap;rounded=0;" vertex="1" parent="XryI4TzNOYUp-OScd5cp-1845">
          <mxGeometry y="60" width="100" height="30" as="geometry" />
        </mxCell>
        <mxCell id="XryI4TzNOYUp-OScd5cp-1846" value="" style="group;fillColor=#E1D5E7;" vertex="1" connectable="0" parent="1">
          <mxGeometry x="1150" y="700" width="100" height="90" as="geometry" />
        </mxCell>
        <mxCell id="XryI4TzNOYUp-OScd5cp-1824" value="Coordination" style="whiteSpace=wrap;html=1;fontSize=14;fillColor=#12aab5;strokeColor=none;fontColor=#FFFFFF;rounded=1;shadow=0;labelBackgroundColor=none;strokeWidth=3;spacing=5;fontStyle=1;arcSize=7;" vertex="1" parent="XryI4TzNOYUp-OScd5cp-1846">
          <mxGeometry width="100" height="60" as="geometry" />
        </mxCell>
        <mxCell id="XryI4TzNOYUp-OScd5cp-1828" value="Orchestrator or&lt;br&gt;Choreography" style="text;html=1;strokeColor=none;fillColor=none;align=left;verticalAlign=middle;whiteSpace=wrap;rounded=0;" vertex="1" parent="XryI4TzNOYUp-OScd5cp-1846">
          <mxGeometry y="60" width="100" height="30" as="geometry" />
        </mxCell>
      </root>
    </mxGraphModel>
  </diagram>
</mxfile>
